<?xml version="1.0" encoding="UTF-8" standalone="no"?><svg width="208" height="208" viewBox="0 0 208 208" fill="none" xmlns="http://www.w3.org/2000/svg">
<rect width="208" height="208" fill="white"/>
<path fill-rule="evenodd" clip-rule="evenodd" d="M104 128C117.255 128 128 117.255 128 104L152 104C152 130.51 130.51 152 104 152C77.4903 152 56 130.51 56 104H80C80 117.255 90.7452 128 104 128Z" fill="#0055FF"/>
<path d="M80 104L128 104C128 90.7452 117.255 80 104 80C90.7452 80 80 90.7452 80 104Z" fill="#0055FF"/>
<path d="M152 80L128 80L128 104C141.255 104 152 93.2548 152 80Z" fill="#F20D59"/>
<path d="M104 80L128 80L128 56C114.745 56 104 66.7452 104 80Z" fill="#F20D59"/>
</svg>
