<?xml version="1.0" encoding="UTF-8" standalone="no"?><svg width="208" height="208" viewBox="0 0 208 208" fill="none" xmlns="http://www.w3.org/2000/svg">
<rect width="208" height="208" fill="#216F81"/>
<path d="M152 104C152 110.303 150.758 116.545 148.346 122.369C145.934 128.192 142.398 133.484 137.941 137.941C133.484 142.398 128.192 145.934 122.369 148.346C116.545 150.758 110.303 152 104 152L104 104H152Z" fill="#F2F63E"/>
<path d="M152 56C152 62.3034 150.758 68.5452 148.346 74.3688C145.934 80.1924 142.398 85.4839 137.941 89.9411C133.484 94.3983 128.192 97.934 122.369 100.346C116.545 102.758 110.303 104 104 104L104 56H152Z" fill="#6FFEB6"/>
<path d="M104 104C104 110.303 102.758 116.545 100.346 122.369C97.934 128.192 94.3983 133.484 89.9411 137.941C85.4839 142.398 80.1924 145.934 74.3688 148.346C68.5452 150.758 62.3035 152 56 152L56 104H104Z" fill="#6FFEB6"/>
<path d="M104 56C104 62.3034 102.758 68.5452 100.346 74.3688C97.934 80.1924 94.3983 85.4839 89.9411 89.9411C85.4839 94.3983 80.1924 97.934 74.3688 100.346C68.5452 102.758 62.3035 104 56 104L56 56H104Z" fill="#6FFEB6"/>
</svg>
