<?xml version="1.0" encoding="UTF-8" standalone="no"?><svg width="208" height="208" viewBox="0 0 208 208" fill="none" xmlns="http://www.w3.org/2000/svg">
<rect width="208" height="208" fill="#242942"/>
<path d="M152 80C152 84.7467 150.592 89.3869 147.955 93.3337C145.318 97.2805 141.57 100.357 137.184 102.173C132.799 103.99 127.973 104.465 123.318 103.539C118.662 102.613 114.386 100.327 111.029 96.9706C107.673 93.6141 105.387 89.3377 104.461 84.6822C103.535 80.0266 104.01 75.201 105.827 70.8156C107.643 66.4302 110.72 62.6819 114.666 60.0447C118.613 57.4076 123.253 56 128 56V80H152Z" fill="#298FA3"/>
<path d="M128 152C123.253 152 118.613 150.592 114.666 147.955C110.72 145.318 107.643 141.57 105.827 137.184C104.01 132.799 103.535 127.973 104.461 123.318C105.387 118.662 107.673 114.386 111.029 111.029C114.386 107.673 118.662 105.387 123.318 104.461C127.973 103.535 132.799 104.01 137.184 105.827C141.57 107.643 145.318 110.72 147.955 114.666C150.592 118.613 152 123.253 152 128H128V152Z" fill="#6F4DB3"/>
<path d="M56 128C56 123.253 57.4076 118.613 60.0447 114.666C62.6819 110.72 66.4302 107.643 70.8156 105.827C75.201 104.01 80.0266 103.535 84.6822 104.461C89.3377 105.387 93.6141 107.673 96.9706 111.029C100.327 114.386 102.613 118.662 103.539 123.318C104.465 127.973 103.99 132.799 102.173 137.184C100.357 141.57 97.2805 145.318 93.3337 147.955C89.3869 150.592 84.7467 152 80 152L80 128L56 128Z" fill="#FF6A4D"/>
<path d="M80 56C84.7468 56 89.3869 57.4076 93.3337 60.0447C97.2805 62.6819 100.357 66.4302 102.173 70.8156C103.99 75.201 104.465 80.0266 103.539 84.6822C102.613 89.3377 100.327 93.6141 96.9706 96.9706C93.6141 100.327 89.3377 102.613 84.6822 103.539C80.0266 104.465 75.201 103.99 70.8156 102.173C66.4302 100.357 62.6819 97.2805 60.0447 93.3337C57.4076 89.3869 56 84.7468 56 80H80L80 56Z" fill="#FFBB33"/>
<path d="M80 104C80 117.255 90.7452 128 104 128C117.255 128 128 117.255 128 104C128 90.7452 117.255 80 104 80C90.7452 80 80 90.7452 80 104Z" fill="#242942"/>
</svg>
