<?xml version="1.0" encoding="UTF-8" standalone="no"?><svg width="208" height="208" viewBox="0 0 208 208" fill="none" xmlns="http://www.w3.org/2000/svg">
<rect width="208" height="208" fill="#033D59"/>
<path d="M149 71C151.258 73.9209 152.15 77.8209 151.984 82.2349C151.817 86.6488 150.412 91.615 147.847 96.85C145.282 102.085 141.608 107.486 137.035 112.745C132.462 118.004 127.079 123.018 121.194 127.501C115.309 131.984 109.037 135.847 102.735 138.87C96.434 141.894 90.2272 144.018 84.4692 145.123C78.7111 146.227 73.5146 146.289 69.1764 145.306C64.8382 144.323 61.2579 142.921 59 140L149 71Z" fill="#2194AD"/>
<path d="M96.7181 99.4828L59.1038 71C54.5399 76.8996 55.0795 86.1541 60.2639 96.7278C63.4841 103.296 68.4064 110.038 74.5246 116.374L96.7181 99.4828Z" fill="#2194AD"/>
<path d="M114.77 142.603C117.813 143.643 120.803 144.451 123.695 145.005C135.334 147.236 144.437 145.792 149.001 139.892L134.464 128.211C132.033 130.397 129.491 132.5 126.863 134.5C122.973 137.46 118.915 140.18 114.77 142.603Z" fill="#2194AD"/>
<path d="M104 59C112.285 59 119 65.7157 119 74C119 82.2843 112.285 89 104 89C95.7162 89 89.0005 82.2843 89.0005 74C89.0005 65.7157 95.7162 59 104 59Z" fill="#FC9227"/>
</svg>
