<?xml version="1.0" encoding="UTF-8" standalone="no"?><svg width="208" height="208" viewBox="0 0 208 208" fill="none" xmlns="http://www.w3.org/2000/svg">
<rect width="208" height="208" fill="#0C9A9A"/>
<path d="M56 62C83 62 104 83 104 110C77 110 56 89 56 62Z" fill="#50E080"/>
<path d="M56 98C83 98 104 119 104 146C77 146 56 125 56 98Z" fill="#3D4B8F"/>
<path d="M152 62C125 62 104 83 104 110C131 110 152 89 152 62Z" fill="#50E080"/>
<path d="M152 98C125 98 104 119 104 146C131 146 152 125 152 98Z" fill="#3D4B8F"/>
</svg>
