<?xml version="1.0" encoding="UTF-8" standalone="no"?><svg width="208" height="208" viewBox="0 0 208 208" fill="none" xmlns="http://www.w3.org/2000/svg">
<rect width="208" height="208" fill="white"/>
<path fill-rule="evenodd" clip-rule="evenodd" d="M104 140C123.882 140 140 123.882 140 104C140 84.1177 123.882 68 104 68C84.1177 68 68 84.1177 68 104C68 123.882 84.1177 140 104 140ZM104 152C130.51 152 152 130.51 152 104C152 77.4903 130.51 56 104 56C77.4903 56 56 77.4903 56 104C56 130.51 77.4903 152 104 152Z" fill="#7111D4"/>
<path fill-rule="evenodd" clip-rule="evenodd" d="M116 128C129.255 128 140 117.255 140 104C140 90.7452 129.255 80 116 80C102.745 80 92 90.7452 92 104C92 117.255 102.745 128 116 128ZM116 140C135.882 140 152 123.882 152 104C152 84.1177 135.882 68 116 68C96.1177 68 80 84.1177 80 104C80 123.882 96.1177 140 116 140Z" fill="#7111D4"/>
<path fill-rule="evenodd" clip-rule="evenodd" d="M116 128C122.627 128 128 122.627 128 116C128 109.373 122.627 104 116 104C109.373 104 104 109.373 104 116C104 122.627 109.373 128 116 128ZM116 140C129.255 140 140 129.255 140 116C140 102.745 129.255 92 116 92C102.745 92 92 102.745 92 116C92 129.255 102.745 140 116 140Z" fill="#7111D4"/>
</svg>
