<?xml version="1.0" encoding="UTF-8" standalone="no"?><svg width="208" height="208" viewBox="0 0 208 208" fill="none" xmlns="http://www.w3.org/2000/svg">
<rect width="208" height="208" fill="white"/>
<path fill-rule="evenodd" clip-rule="evenodd" d="M56 104C56 77.4903 77.4903 56 104 56C130.51 56 152 77.4903 152 104C152 130.51 130.51 152 104 152C77.4903 152 56 130.51 56 104ZM83.6353 83.6353C78.4235 88.8471 75.2 96.0471 75.2 104C75.2 119.906 88.0942 132.8 104 132.8C111.953 132.8 119.153 129.576 124.365 124.365L83.6353 83.6353Z" fill="#FF3377"/>
<path d="M103.989 104.011C109.653 109.675 105.641 119.36 97.6311 119.36C92.6655 119.36 88.6401 115.335 88.6401 110.369C88.6401 102.359 98.3247 98.3474 103.989 104.011Z" fill="#FF3377"/>
<path d="M104.011 103.989C98.3473 98.3246 102.359 88.64 110.369 88.64C115.334 88.64 119.36 92.6654 119.36 97.631C119.36 105.641 109.675 109.653 104.011 103.989Z" fill="#FFFF67"/>
</svg>
