<?xml version="1.0" encoding="UTF-8" standalone="no"?><svg width="208" height="208" viewBox="0 0 208 208" fill="none" xmlns="http://www.w3.org/2000/svg">
<rect width="208" height="208" fill="white"/>
<path d="M64.0895 77.3326C58.8152 85.2262 56 94.5065 56 104C69.2549 117.255 90.7451 117.255 104 104L87.0294 87.0294C89.2474 84.8115 91.8896 83.0389 94.8156 81.8269C99.201 80.0104 104.027 79.5351 108.682 80.4612C113.338 81.3872 117.614 83.673 120.971 87.0295L137.941 70.0589C131.228 63.346 122.675 58.7744 113.364 56.9223C104.053 55.0702 94.4021 56.0208 85.6312 59.6538C76.8604 63.2868 69.3638 69.4391 64.0895 77.3326Z" fill="#5555F6"/>
<path d="M104 104L120.97 120.971C118.752 123.188 116.11 124.961 113.184 126.173C108.799 127.99 103.973 128.465 99.3176 127.539C94.662 126.613 90.3857 124.327 87.0292 120.971L70.0586 137.941C76.7716 144.654 85.3243 149.226 94.6355 151.078C103.947 152.93 113.598 151.979 122.369 148.346C131.139 144.713 138.636 138.561 143.91 130.667C149.185 122.774 152 113.493 152 104C138.745 90.7451 117.255 90.7451 104 104Z" fill="#FF4C4C"/>
</svg>
