<?xml version="1.0" encoding="UTF-8" standalone="no"?><svg width="208" height="208" viewBox="0 0 208 208" fill="none" xmlns="http://www.w3.org/2000/svg">
<rect width="208" height="208" fill="#091E3E"/>
<path fill-rule="evenodd" clip-rule="evenodd" d="M89.9248 64.2838C96.0586 53.2397 111.941 53.2397 118.075 64.2838C118.872 65.7188 120.553 66.415 122.131 65.9639C134.278 62.4919 145.509 73.7227 142.037 85.8693C141.586 87.4475 142.282 89.1285 143.717 89.9255C154.761 96.0594 154.761 111.942 143.717 118.076C142.282 118.873 141.586 120.554 142.037 122.132C145.509 134.279 134.278 145.51 122.131 142.038C120.553 141.586 118.872 142.283 118.075 143.718C111.941 154.762 96.0586 154.762 89.9248 143.718C89.1278 142.283 87.4468 141.586 85.8686 142.038C73.7219 145.51 62.4911 134.279 65.9632 122.132C66.4143 120.554 65.718 118.873 64.283 118.076C53.239 111.942 53.239 96.0594 64.283 89.9255C65.718 89.1285 66.4143 87.4475 65.9632 85.8693C62.4911 73.7227 73.7219 62.4919 85.8686 65.9639C87.4468 66.415 89.1278 65.7188 89.9248 64.2838ZM107.086 70.3872C105.741 67.9658 102.259 67.9658 100.914 70.3872C97.2789 76.9321 89.6121 80.1078 82.4138 78.0502C79.7506 77.289 77.2882 79.7513 78.0495 82.4145C80.1071 89.6129 76.9314 97.2797 70.3865 100.915C67.965 102.26 67.965 105.742 70.3865 107.087C76.9314 110.722 80.1071 118.389 78.0495 125.587C77.2882 128.25 79.7506 130.712 82.4138 129.951C89.6121 127.894 97.2789 131.069 100.914 137.614C102.259 140.036 105.741 140.036 107.086 137.614C110.721 131.069 118.388 127.894 125.586 129.951C128.249 130.712 130.712 128.25 129.951 125.587C127.893 118.389 131.069 110.722 137.614 107.087C140.035 105.742 140.035 102.26 137.614 100.915C131.069 97.2797 127.893 89.6129 129.951 82.4145C130.712 79.7513 128.249 77.289 125.586 78.0502C118.388 80.1078 110.721 76.9321 107.086 70.3872Z" fill="#08839B"/>
<path d="M99.6688 92.2581C101.032 87.9149 106.968 87.9149 108.331 92.2581L108.75 93.5929C109.36 95.5352 111.108 96.8503 113.081 96.8503H114.437C118.849 96.8503 120.683 102.694 117.114 105.378L116.017 106.203C114.421 107.404 113.753 109.531 114.363 111.474L114.782 112.809C116.145 117.152 111.343 120.763 107.774 118.079L106.677 117.254C105.081 116.054 102.919 116.054 101.323 117.254L100.226 118.079C96.6572 120.763 91.855 117.152 93.2183 112.809L93.6373 111.474C94.2469 109.531 93.579 107.404 91.9829 106.203L90.886 105.378C87.3169 102.694 89.1512 96.8503 93.5628 96.8503H94.9187C96.8916 96.8503 98.6402 95.5352 99.2498 93.5929L99.6688 92.2581Z" fill="#FFB300"/>
</svg>
