<?xml version="1.0" encoding="UTF-8" standalone="no"?><svg width="208" height="208" viewBox="0 0 208 208" fill="none" xmlns="http://www.w3.org/2000/svg">
<rect width="208" height="208" fill="white"/>
<path d="M73.4226 134.577C60.7595 121.914 54.4279 115.583 56.3337 110.141C56.4466 109.819 56.5773 109.503 56.7254 109.195C59.2256 104 68.1798 104 86.0882 104C94.3147 104 98.428 104 101.067 106.45C101.234 106.605 101.395 106.766 101.55 106.933C104 109.572 104 113.685 104 121.912C104 139.82 104 148.774 98.8045 151.275C98.4969 151.423 98.1812 151.553 97.859 151.666C92.4173 153.572 86.0857 147.241 73.4226 134.577Z" fill="#DDFF33"/>
<path d="M97.4226 110.577C84.7595 97.9143 78.4279 91.5827 80.3337 86.141C80.4466 85.8188 80.5773 85.5031 80.7254 85.1954C83.2256 80 92.1798 80 110.088 80C118.315 80 122.428 80 125.067 82.45C125.234 82.6048 125.395 82.7658 125.55 82.9326C128 85.572 128 89.6853 128 97.9118C128 115.82 128 124.774 122.805 127.275C122.497 127.423 122.181 127.553 121.859 127.666C116.417 129.572 110.086 123.241 97.4226 110.577Z" fill="#88CC00"/>
<path d="M121.423 86.5774C108.759 73.9143 102.428 67.5827 104.334 62.141C104.447 61.8188 104.577 61.5031 104.725 61.1954C107.226 56 116.18 56 134.088 56C142.315 56 146.428 56 149.067 58.45C149.234 58.6048 149.395 58.7658 149.55 58.9326C152 61.572 152 65.6853 152 73.9118C152 91.8202 152 100.774 146.805 103.275C146.497 103.423 146.181 103.553 145.859 103.666C140.417 105.572 134.086 99.2405 121.423 86.5774Z" fill="#4D9900"/>
</svg>
