<?xml version="1.0" encoding="UTF-8" standalone="no"?><svg width="208" height="208" viewBox="0 0 208 208" fill="none" xmlns="http://www.w3.org/2000/svg">
<rect width="208" height="208" fill="white"/>
<path d="M104 152L56 152L56 104C82.5097 104 104 125.49 104 152Z" fill="#3061E8"/>
<path d="M152 104V152H104C104 125.49 125.49 104 152 104Z" fill="#3061E8"/>
<path d="M98 83C98 68.0883 110.088 56 125 56C139.912 56 152 68.0883 152 83C152 97.9117 139.912 110 125 110C110.088 110 98 97.9117 98 83Z" fill="#FF3377"/>
<path d="M104 56H56V104C82.5097 104 104 82.5097 104 56Z" fill="#3061E8"/>
</svg>
